<?xml version="1.0" encoding="UTF-8"?>
<svg width="110px" height="60px" viewBox="0 0 110 60" version="1.1" xmlns="http://www.w3.org/2000/svg" xmlns:xlink="http://www.w3.org/1999/xlink">
    <title>基础折线图</title>
    <g id="缩略图" stroke="none" stroke-width="1" fill="none" fill-rule="evenodd">
        <g id="缩略图-小" transform="translate(-674.000000, -74.000000)">
            <g id="线状图类" transform="translate(668.000000, 35.000000)">
                <g id="基础折线图" transform="translate(6.000000, 39.000000)">
                    <rect id="Base-109备份-3" fill="#FFFFFF" fill-rule="nonzero" x="0" y="0" width="110" height="60" rx="1"></rect>
                    <polygon id="矩形" fill="#3D9EFF" points="59 6 60 6 60 60 59 60"></polygon>
                    <rect id="矩形" fill-opacity="0.41" fill="#1CA4FF" x="63" y="17" width="12" height="5" rx="1"></rect>
                    <polyline id="路径-8" stroke="#3D9EFF" stroke-linecap="round" points="0.785462312 43.8670042 10.9637877 36.75 26.3890469 37.5052029 38.331846 30.7040758 49 33.2560597 59.5 25.4188724 67.6367695 28.7040758 79.8958676 34 90.2206526 25.4188724 100.929259 21 109.01336 25.3888342"></polyline>
                    <polyline id="路径-8" stroke="#FFBB34" stroke-linecap="round" points="0.785462312 56.9703458 13.4489999 53.5394114 23.4790796 46.2560597 36.0854906 50.0856949 49 46.2560597 59.5 38.4188724 69.6545594 39.5 79.4870276 41.7040758 91.0306383 38.4188724 100.162179 41.7040758 109.01336 38.4188724"></polyline>
                    <rect id="Color_label-24备份" stroke="#3D9EFF" fill="#FFFFFF" fill-rule="nonzero" x="57" y="24" width="5" height="5" rx="2.5"></rect>
                    <rect id="Color_label-24备份-2" stroke="#FFBB34" fill="#FFFFFF" fill-rule="nonzero" x="57" y="37" width="5" height="5" rx="2.5"></rect>
                </g>
            </g>
        </g>
    </g>
</svg>